<svg width="25.129425" height="24.000000" viewBox="0 0 25.1294 24" fill="none" xmlns="http://www.w3.org/2000/svg" xmlns:xlink="http://www.w3.org/1999/xlink">
	<desc>
			Created with Pixso.
	</desc>
	<defs>
		<clipPath id="clip518_502">
			<rect id="globe-icon" rx="-0.500000" width="24.129412" height="23.000000" transform="translate(0.500000 0.500000)" fill="white" fill-opacity="0"/>
		</clipPath>
	</defs>
	<g clip-path="url(#clip518_502)">
		<path id="Icon" d="M12.56 21C7.36 21 3.14 16.97 3.14 12C3.14 7.02 7.36 3 12.56 3C17.76 3 21.98 7.02 21.98 12C21.98 16.97 17.76 21 12.56 21ZM3.19 11L5.23 11C6.39 11 7.32 11.89 7.32 13L7.32 14C7.32 15.1 8.26 16 9.42 16C10.58 16 11.51 16.89 11.51 18L11.51 20.94M8.37 3.93L8.37 5.5C8.37 6.88 9.54 8 10.99 8L11.51 8C12.67 8 13.61 8.89 13.61 10C13.61 11.1 14.54 12 15.7 12C16.86 12 17.79 11.1 17.79 10C17.79 8.89 18.73 8 19.89 8L21 8M15.7 20.48L15.7 18C15.7 16.89 16.64 16 17.79 16L21 16" stroke="#5D5E5F" stroke-opacity="1.000000" stroke-width="1.000000" stroke-linejoin="round"/>
	</g>
</svg>
