<svg width="141.000000" height="40.000000" viewBox="0 0 141 40" fill="none" xmlns="http://www.w3.org/2000/svg" xmlns:xlink="http://www.w3.org/1999/xlink">
	<desc>
			Created with Pixso.
	</desc>
	<defs>
		<clipPath id="clip518_476">
			<rect id="logo" rx="-0.500000" width="140.000000" height="39.000000" transform="translate(0.500000 0.500000)" fill="white" fill-opacity="0"/>
		</clipPath>
	</defs>
	<rect id="logo" rx="-0.500000" width="140.000000" height="39.000000" transform="translate(0.500000 0.500000)" fill="#FFFFFF" fill-opacity="0"/>
	<g clip-path="url(#clip518_476)">
		<path id="Vector" d="M50.4 5.91C50.46 6.14 50.49 6.5 50.49 6.99C50.49 7.47 50.46 7.82 50.4 8.04C50.22 8.72 49.8 9.17 49.15 9.37C48.82 9.48 48.4 9.54 47.88 9.54C47.35 9.54 46.92 9.48 46.59 9.37C46.3 9.27 46.04 9.11 45.81 8.89C45.59 8.66 45.43 8.38 45.35 8.04C45.28 7.78 45.25 7.43 45.25 6.99C45.25 6.54 45.28 6.18 45.35 5.91C45.43 5.59 45.59 5.31 45.81 5.09C46.04 4.86 46.29 4.69 46.59 4.58C46.89 4.48 47.32 4.43 47.88 4.43C48.43 4.43 48.85 4.48 49.15 4.58C49.81 4.81 50.23 5.25 50.4 5.91ZM50.11 27.21L45.63 27.21L45.63 11.56L50.11 11.56L50.11 27.21Z" fill="#0086EE" fill-opacity="1.000000" fill-rule="nonzero"/>
		<path id="Vector" d="M69.42 20.01L60.72 20.01L62.83 15.87L68.02 15.87C68.49 15.87 68.89 15.83 69.24 15.74C69.59 15.66 69.92 15.52 70.22 15.32C70.53 15.12 70.76 14.83 70.92 14.45C71.08 14.06 71.16 13.59 71.16 13.03C71.16 11.97 70.89 11.23 70.34 10.79C69.8 10.36 69.02 10.14 68.02 10.14L59.55 10.14L59.55 27.21L55.05 27.21L55.05 6L69.42 6C71.34 6 72.83 6.52 73.89 7.55C74.95 8.59 75.53 9.93 75.63 11.56C75.64 11.74 75.65 12.54 75.65 13.97C75.65 15.11 75.43 16.12 74.99 17.01C74.55 17.9 73.85 18.63 72.89 19.18C71.94 19.73 70.78 20.01 69.42 20.01Z" fill="#0086EE" fill-opacity="1.000000" fill-rule="nonzero"/>
		<path id="Vector" d="M85.12 11.56L93.12 11.56L90.98 15.73L86.86 15.73C86.49 15.73 86.16 15.75 85.88 15.78C85.6 15.81 85.3 15.88 84.96 15.99C84.62 16.09 84.35 16.24 84.13 16.43C83.91 16.62 83.73 16.88 83.58 17.22C83.43 17.56 83.36 17.97 83.36 18.44L83.36 27.21L78.86 27.21L78.86 17.63C78.86 16.78 78.99 15.99 79.25 15.27C79.51 14.54 79.89 13.9 80.4 13.34C80.9 12.79 81.56 12.35 82.37 12.04C83.17 11.72 84.09 11.56 85.12 11.56Z" fill="#0086EE" fill-opacity="1.000000" fill-rule="nonzero"/>
		<path id="Vector" d="M108.21 27.21L101.04 27.21C100.01 27.21 99.09 27.05 98.28 26.74C97.47 26.42 96.81 25.99 96.31 25.43C95.81 24.87 95.43 24.23 95.17 23.5C94.91 22.78 94.78 21.99 94.78 21.14L94.78 17.62C94.78 16.78 94.91 15.99 95.17 15.27C95.43 14.54 95.81 13.9 96.32 13.34C96.82 12.79 97.48 12.35 98.29 12.03C99.09 11.72 100.01 11.56 101.04 11.56L108.21 11.56C109.24 11.56 110.16 11.72 110.97 12.03C111.77 12.35 112.43 12.79 112.93 13.34C113.44 13.9 113.82 14.54 114.08 15.27C114.34 15.99 114.47 16.78 114.47 17.62L114.47 21.14C114.47 22.29 114.25 23.31 113.8 24.21C113.36 25.1 112.65 25.83 111.69 26.38C110.73 26.93 109.57 27.21 108.21 27.21ZM109.97 20.35L109.97 18.44C109.97 17.97 109.89 17.56 109.75 17.22C109.6 16.88 109.42 16.62 109.2 16.43C108.98 16.24 108.7 16.09 108.37 15.99C108.03 15.88 107.73 15.81 107.45 15.78C107.16 15.75 106.84 15.73 106.47 15.73L102.78 15.73C102.41 15.73 102.08 15.75 101.8 15.78C101.52 15.81 101.22 15.87 100.88 15.98C100.55 16.08 100.27 16.23 100.06 16.41C99.84 16.6 99.66 16.87 99.51 17.21C99.36 17.56 99.28 17.97 99.28 18.44L99.28 20.35C99.28 20.82 99.36 21.23 99.51 21.57C99.66 21.91 99.84 22.17 100.06 22.36C100.27 22.54 100.55 22.69 100.88 22.79C101.22 22.9 101.52 22.96 101.8 22.99C102.08 23.02 102.41 23.04 102.78 23.04L106.47 23.04C106.84 23.04 107.17 23.02 107.45 22.99C107.73 22.96 108.03 22.9 108.37 22.79C108.7 22.69 108.98 22.54 109.19 22.36C109.41 22.17 109.59 21.91 109.74 21.57C109.89 21.23 109.97 20.82 109.97 20.35Z" fill="#0086EE" fill-opacity="1.000000" fill-rule="nonzero"/>
		<path id="Vector" d="M34.34 39L5.63 39C2.69 39 0.31 36.65 0.31 33.75L0.31 5.45C0.31 2.55 2.69 0.21 5.63 0.21L34.34 0.21C37.28 0.21 39.66 2.55 39.66 5.45L39.66 33.75C39.66 36.65 37.28 39 34.34 39Z" fill="#0086EE" fill-opacity="1.000000" fill-rule="nonzero"/>
		<path id="Vector" d="M6.89 12.23C7.03 11.9 7.4 11.73 7.74 11.86L22.03 17.02C23.47 17.6 23.45 18.75 22.03 20.45L13.43 32.38C13.21 32.68 12.78 32.75 12.48 32.52L8.67 29.72C8.37 29.5 8.31 29.08 8.54 28.79L14.15 21.67C14.8 20.92 14.72 20.42 14.15 20.08L5.67 17.01C5.32 16.88 5.14 16.49 5.28 16.15L6.89 12.23Z" fill="#FFFFFF" fill-opacity="1.000000" fill-rule="nonzero"/>
		<path id="Vector" d="M25.66 23.6L23.18 27.21C23.02 27.44 23.02 27.74 23.19 27.96L26.38 32.32C26.62 32.64 27.08 32.69 27.38 32.41L30.66 29.38C30.91 29.15 30.94 28.76 30.72 28.49L26.74 23.56C26.46 23.22 25.92 23.24 25.66 23.6Z" fill="#FFFFFF" fill-opacity="1.000000" fill-rule="nonzero"/>
		<path id="Vector" d="M23.16 10.7L16.85 10.7C16.76 10.7 16.68 10.63 16.68 10.53L16.68 4.32C16.68 4.22 16.76 4.14 16.85 4.14L23.16 4.14C23.25 4.14 23.33 4.22 23.33 4.32L23.33 10.53C23.33 10.63 23.25 10.7 23.16 10.7Z" fill="#FFFFFF" fill-opacity="1.000000" fill-rule="nonzero"/>
		<path id="Vector" d="M26.95 13.54L32.4 11.83C32.75 11.72 33.11 11.9 33.23 12.24L34.7 16.28C34.83 16.62 34.64 17 34.3 17.12L28.74 19.1C28.38 19.23 27.99 19.03 27.87 18.68L26.51 14.36C26.4 14.01 26.59 13.64 26.95 13.54Z" fill="#FFFFFF" fill-opacity="1.000000" fill-rule="nonzero"/>
		<path id="IT and M&amp;M Group" d="M75.98 38L75.98 30.58L74.73 30.58L74.73 33.31Q74.58 33.14 74.4 33.01Q74.21 32.87 73.99 32.78Q73.55 32.59 73.02 32.59Q72.36 32.59 71.81 32.84Q71.72 32.89 71.63 32.94Q71.35 33.09 71.12 33.31Q70.85 33.56 70.67 33.9Q70.65 33.92 70.64 33.94Q70.32 34.54 70.32 35.32Q70.32 36.1 70.64 36.71Q70.65 36.74 70.67 36.76Q70.86 37.11 71.14 37.37Q71.36 37.58 71.63 37.73Q71.71 37.77 71.8 37.81Q72.35 38.07 73.02 38.07Q73.57 38.07 74.02 37.88Q74.26 37.77 74.46 37.62Q74.64 37.48 74.79 37.3L74.79 38L75.98 38ZM115.44 34.42L114.21 34.42L114.21 36.6Q114.19 36.61 114.17 36.62Q113.56 36.96 112.77 36.96Q112.11 36.96 111.59 36.7Q111.52 36.67 111.46 36.64Q111.14 36.46 110.9 36.21Q110.7 36 110.56 35.76Q110.49 35.63 110.43 35.5Q110.24 35.04 110.24 34.49Q110.24 33.86 110.49 33.35Q110.52 33.28 110.56 33.21Q110.71 32.95 110.92 32.74Q111.16 32.51 111.46 32.35Q111.47 32.34 111.48 32.34Q112.05 32.04 112.78 32.04Q113.34 32.04 113.82 32.23Q114.31 32.43 114.71 32.83L115.53 32.04Q115.37 31.86 115.19 31.7Q114.8 31.38 114.32 31.19Q113.6 30.9 112.72 30.9Q111.76 30.9 110.97 31.26Q110.87 31.31 110.77 31.36Q110.26 31.64 109.88 32.03Q109.62 32.31 109.42 32.65Q109.29 32.85 109.2 33.07Q108.92 33.72 108.92 34.49Q108.92 35.28 109.21 35.94Q109.3 36.15 109.42 36.34Q109.62 36.69 109.89 36.97Q110.27 37.36 110.77 37.63Q110.88 37.69 111 37.75Q111.77 38.1 112.69 38.1Q113.14 38.1 113.57 38.02Q113.87 37.96 114.18 37.87Q114.9 37.64 115.44 37.2L115.44 34.42ZM94.43 37.26L95.3 38.1L95.99 37.29L95.12 36.45Q95.55 35.79 95.75 34.86L94.74 34.53Q94.6 35.21 94.34 35.71L92.84 34.26Q93.6 33.83 93.93 33.41Q94.09 33.21 94.18 32.98Q94.26 32.73 94.26 32.46Q94.26 32.03 94.08 31.71Q93.96 31.49 93.75 31.33Q93.25 30.91 92.39 30.91Q91.5 30.91 90.94 31.35Q90.93 31.36 90.92 31.37Q90.67 31.58 90.53 31.85Q90.37 32.16 90.37 32.57Q90.37 32.68 90.38 32.79Q90.42 33.06 90.54 33.32Q90.72 33.69 91.14 34.11Q90.28 34.58 89.9 35.08Q89.75 35.28 89.66 35.5Q89.53 35.84 89.53 36.23Q89.53 36.5 89.61 36.74Q89.69 36.98 89.85 37.19Q90.18 37.61 90.76 37.86Q91.34 38.1 92.07 38.1Q92.93 38.1 93.64 37.76Q94.06 37.57 94.43 37.26ZM47.24 31L45.93 31L45.93 38L47.24 38L47.24 31ZM48.22 32.09L50.55 32.09L50.55 38L51.84 38L51.84 32.09L54.16 32.09L54.16 31L48.22 31L48.22 32.09ZM86.93 33.35L86.94 38L88.17 38L88.15 31L87.08 31L84.36 35.63L81.57 31L80.5 31L80.5 38L81.75 38L81.75 33.41L84.05 37.19L84.63 37.19L86.93 33.35ZM103.54 33.35L103.55 38L104.78 38L104.76 31L103.7 31L100.97 35.63L98.18 31L97.11 31L97.11 38L98.36 38L98.36 33.41L100.66 37.19L101.24 37.19L103.54 33.35ZM91.76 32Q92 31.81 92.39 31.81Q92.77 31.81 92.99 31.99Q93.07 32.05 93.12 32.13Q93.2 32.28 93.2 32.48Q93.2 32.54 93.19 32.61Q93.15 32.82 92.97 33.01Q92.74 33.25 92.14 33.59Q91.76 33.21 91.63 33Q91.55 32.86 91.52 32.7Q91.51 32.63 91.51 32.55Q91.51 32.36 91.58 32.21Q91.64 32.1 91.74 32.01Q91.75 32.01 91.76 32ZM61.63 33.16Q61.01 32.59 59.82 32.59Q59.16 32.59 58.57 32.77Q57.99 32.93 57.57 33.25L58.05 34.16Q58.35 33.92 58.79 33.78Q59.11 33.67 59.43 33.65Q59.55 33.63 59.68 33.63Q60.33 33.63 60.67 33.93Q60.74 33.99 60.79 34.06Q61.01 34.35 61.01 34.79L61.01 34.87L59.63 34.87Q58.47 34.87 57.94 35.31Q57.7 35.5 57.57 35.75Q57.4 36.06 57.4 36.46Q57.4 36.76 57.5 37.02Q57.56 37.16 57.65 37.29Q57.68 37.33 57.71 37.37Q57.95 37.68 58.34 37.86Q58.8 38.07 59.39 38.07Q59.99 38.07 60.42 37.88Q60.76 37.73 60.98 37.47Q61.03 37.41 61.07 37.35L61.07 38L62.26 38L62.26 34.87Q62.26 33.83 61.74 33.27Q61.69 33.21 61.63 33.16ZM68.24 32.97Q67.69 32.59 66.89 32.59Q66.29 32.59 65.82 32.79Q65.49 32.92 65.24 33.15Q65.13 33.24 65.04 33.34L65.04 32.66L63.86 32.66L63.86 38L65.11 38L65.11 35.29Q65.11 34.54 65.48 34.13Q65.49 34.11 65.51 34.1Q65.6 34.01 65.7 33.94Q66.06 33.69 66.59 33.69Q67.11 33.69 67.42 33.94Q67.48 33.98 67.53 34.04Q67.86 34.39 67.86 35.09L67.86 38L69.11 38L69.11 34.94Q69.11 33.83 68.56 33.25Q68.53 33.21 68.5 33.19Q68.38 33.07 68.24 32.97ZM118.45 33.15Q118.32 33.28 118.21 33.43L118.21 32.66L117.03 32.66L117.03 38L118.28 38L118.28 35.4Q118.28 34.63 118.66 34.2Q118.67 34.19 118.69 34.18Q118.76 34.11 118.84 34.04Q119.22 33.75 119.83 33.75Q119.96 33.75 120.12 33.79L120.12 32.59Q119.01 32.59 118.45 33.15ZM122.22 37.79Q122.81 38.07 123.53 38.07Q124.29 38.07 124.9 37.77Q124.95 37.74 125 37.72Q125.37 37.52 125.64 37.23Q125.85 37.01 126.01 36.74Q126.08 36.62 126.13 36.5Q126.37 35.97 126.37 35.32Q126.37 34.68 126.13 34.15Q126.08 34.03 126.01 33.92Q125.86 33.66 125.66 33.45Q125.38 33.15 125 32.95Q124.94 32.92 124.89 32.89Q124.28 32.59 123.53 32.59Q122.82 32.59 122.23 32.86Q122.15 32.9 122.07 32.95Q121.69 33.15 121.41 33.44Q121.2 33.66 121.05 33.92Q120.99 34.02 120.93 34.14Q120.69 34.67 120.69 35.32Q120.69 35.97 120.93 36.51Q120.99 36.63 121.05 36.74Q121.21 37.01 121.42 37.23Q121.7 37.52 122.07 37.72Q122.14 37.76 122.22 37.79ZM138.61 32.87Q138.05 32.59 137.34 32.59Q136.8 32.59 136.34 32.79Q136.1 32.89 135.9 33.04Q135.72 33.18 135.57 33.35L135.57 32.66L134.39 32.66L134.39 39.94L135.64 39.94L135.64 37.35Q135.84 37.58 136.1 37.74Q136.62 38.07 137.34 38.07Q138.05 38.07 138.63 37.79Q138.69 37.76 138.74 37.73Q139.01 37.58 139.23 37.37Q139.51 37.11 139.71 36.76Q139.72 36.74 139.73 36.71Q140.05 36.1 140.05 35.32Q140.05 34.54 139.73 33.94Q139.72 33.92 139.71 33.9Q139.52 33.56 139.25 33.31Q139.02 33.09 138.74 32.94Q138.68 32.9 138.61 32.87ZM132.74 38L132.74 32.66L131.5 32.66L131.5 35.36Q131.5 36.12 131.12 36.53Q131.11 36.54 131.1 36.55Q131 36.66 130.88 36.73Q130.53 36.96 130.03 36.96Q129.55 36.96 129.24 36.73Q129.17 36.68 129.11 36.61Q128.78 36.25 128.78 35.53L128.78 32.66L127.53 32.66L127.53 35.71Q127.53 36.81 128.09 37.41Q128.12 37.44 128.15 37.47Q128.23 37.55 128.32 37.62Q128.91 38.07 129.84 38.07Q130.28 38.07 130.67 37.92Q130.74 37.9 130.81 37.87Q131.12 37.74 131.36 37.52Q131.46 37.42 131.56 37.31L131.56 38L132.74 38ZM73.83 36.86Q73.53 36.99 73.17 36.99Q72.81 36.99 72.51 36.87Q72.43 36.83 72.35 36.79Q72.23 36.72 72.13 36.63Q71.92 36.45 71.79 36.21Q71.58 35.82 71.58 35.32Q71.58 34.83 71.79 34.45Q71.93 34.19 72.14 34.01Q72.24 33.93 72.35 33.86Q72.43 33.82 72.51 33.78Q72.81 33.65 73.17 33.65Q73.53 33.65 73.83 33.79Q73.9 33.82 73.97 33.86Q74.1 33.93 74.21 34.02Q74.41 34.2 74.54 34.45Q74.75 34.83 74.75 35.32Q74.75 35.82 74.54 36.21Q74.41 36.45 74.21 36.62Q74.1 36.71 73.97 36.79Q73.9 36.83 73.83 36.86ZM124.29 36.82Q123.95 36.99 123.53 36.99Q123.09 36.99 122.76 36.81Q122.56 36.71 122.39 36.54Q122.29 36.43 122.21 36.32Q121.95 35.91 121.95 35.32Q121.95 34.75 122.21 34.34Q122.29 34.22 122.39 34.12Q122.56 33.94 122.76 33.83Q123.1 33.65 123.53 33.65Q123.95 33.65 124.28 33.83Q124.49 33.94 124.67 34.12Q124.77 34.23 124.86 34.35Q125.12 34.75 125.12 35.32Q125.12 35.9 124.85 36.3Q124.77 36.43 124.67 36.54Q124.5 36.71 124.29 36.82ZM137.98 36.81Q137.64 36.99 137.21 36.99Q136.85 36.99 136.55 36.87Q136.47 36.83 136.39 36.79Q136.27 36.72 136.17 36.63Q135.96 36.45 135.83 36.21Q135.62 35.82 135.62 35.32Q135.62 34.83 135.83 34.45Q135.97 34.19 136.17 34.01Q136.28 33.93 136.39 33.86Q136.47 33.82 136.55 33.78Q136.85 33.65 137.21 33.65Q137.64 33.65 137.97 33.83Q138.17 33.94 138.34 34.12Q138.44 34.22 138.52 34.34Q138.78 34.75 138.78 35.32Q138.78 35.91 138.52 36.32Q138.44 36.43 138.34 36.54Q138.17 36.71 137.98 36.81ZM93.11 36.89Q92.68 37.07 92.16 37.07Q91.52 37.07 91.13 36.81Q90.91 36.65 90.81 36.43Q90.75 36.28 90.75 36.1Q90.75 35.93 90.79 35.77Q90.85 35.58 90.99 35.41Q91.23 35.1 91.83 34.77L93.69 36.54Q93.42 36.76 93.11 36.89ZM60.38 37Q60.06 37.16 59.66 37.16Q59.17 37.16 58.9 36.96Q58.77 36.86 58.71 36.73Q58.63 36.59 58.63 36.42Q58.63 36.2 58.73 36.05Q58.96 35.71 59.71 35.71L61.01 35.71L61.01 36.33Q60.93 36.53 60.79 36.69Q60.66 36.84 60.49 36.94Q60.44 36.97 60.38 37Z" fill="#FFFFFF" fill-opacity="1.000000" fill-rule="evenodd"/>
	</g>
</svg>
